<?xml version="1.0" encoding="UTF-8"?>
<svg viewBox="0 0 412.09662 382.06696" xmlns="http://www.w3.org/2000/svg">
 <g transform="translate(-258.06 -330.78)">
  <path d="m407.98 331.32-10.357 2.3689-10.725 4.3258-6.8709 6.2484-2.3126 8.2397-0.36868 11.398 3.05 6.2828 0.36868 4.7035-3.8209 3.1242-1.9104 10.986-4.9939 14.934-3.4187 14.488-7.6752 18.848-3.8209 15.69-0.4022 17.269-4.5917 18.436 0.40219 6.2828-8.4461 13.733v13.355l3.4522 12.531 2.3126 11.776-0.77087 11.776-4.9939 23.929-0.77088 10.197-9.1835 12.565-17.63 13.733-17.227 15.69-13.407 12.154-5.7313 10.986-8.0439 3.5362-8.8148 7.862-2.6813 5.8708 5.7313 10.609 9.5857 9.4069s9.5713 9.4315 12.636 10.609 8.0439 5.8708 8.0439 5.8708l7.273 1.1673 4.9939-7.038-0.77087-6.6947s-6.5022-12.149-6.5022-14.11-4.6252-14.11-4.6252-14.11l3.0835-3.1585 35.628-20.805 27.182-22.35 16.859-23.14 13.038-20.427 11.094 23.964 4.2231 13.733 4.1895 31.379 6.1335 6.6604v6.6604l-2.2791 6.6947-3.4522 5.4931-1.1396 7.8277 0.73736 7.45 7.6752 2.3689 11.094 2.7466s12.277 3.9334 13.809 4.3258 11.094 5.0811 11.094 5.0811l12.267 2.3689 4.9939-1.9569-2.3126-7.0724s-5.7409-5.8904-7.273-6.2828-4.587-1.5744-6.5022-3.5362-7.3066-10.574-7.3066-10.574l-4.9604-6.6947-1.1396-10.197 0.73737-10.197 0.40218-7.0724-0.77087-7.8277-1.9104-18.436 3.05-10.609v-19.604l-3.4522-12.943-15.686-35.328-9.1835-19.226-1.944-10.986-1.9104-3.1242 11.496-12.565 7.273-20.016 0.4022-13.733 8.0439-1.1673 22.221 2.7466 25.271 6.2828 27.584 0.37764 7.6417-1.1673 13.407 0.78964 8.0439 0.7553 6.9044-1.5449 2.6813-3.5362 1.5418-5.9051 22.221 1.9912 25.64 0.7553 27.215 1.2016 19.138 0.37766h19.909l1.944-4.7035-1.1731-7.862-2.6813-5.0811-3.05-1.1673-14.177 0.75531-31.405 3.1585-29.897 3.5362-17.596 1.9569-19.171 2.3346-0.36868-4.2915-1.9104-3.5362-6.5357-1.1673-6.1 3.9138-8.8148-2.7466-8.8148-8.2397-8.8148-5.9051-37.17-29.422-12.233-7.8277-18.4-12.943-8.8148-4.3258-3.05-9.0293v-1.1673l13.775-5.1155 3.0835-3.5362-1.5418-2.3346-5.7313-2.7466-7.6752-2.3689-4.2231-9.0293-7.6417-9.0293-11.496-1.9569zm24.132 80.44 3.4522 1.1673 13.004 5.4931s23.768 10.613 27.215 11.398 18.769 10.574 18.769 10.574l10.323 5.9051h-4.9604l-14.948-2.3689-14.546-4.2915-14.58-4.7378-11.094-2.7466-11.496-6.6604-1.5418-3.1242 0.4022-10.609z" stroke="#000" stroke-width="1.0855"/>
 </g>
</svg>
